<?xml version="1.0" encoding="utf-8"?>
<svg version="1.0" width="1080.000000pt" height="1080.000000pt" viewBox="0 0 1080.000000 1080.000000" preserveAspectRatio="xMidYMid meet" xmlns="http://www.w3.org/2000/svg">
  <g transform="matrix(0.120514, 0, 0, -0.118931, -123.770866, 1251.392578)" fill="#000000" stroke="none" style="">
    <path d="M5083 8930 c-302 -38 -564 -114 -810 -234 -170 -83 -250 -131 -379 -228 -709 -527 -1078 -1399 -959 -2264 106 -767 571 -1440 1245 -1802 256 -138 525 -227 805 -269 244 -36 639 -21 875 33 518 119 1010 420 1329 814 299 368 465 743 538 1210 24 159 24 508 -1 674 -134 908 -758 1660 -1613 1946 -355 118 -709 160 -1030 120z m587 -110 c302 -44 582 -144 854 -304 270 -159 557 -433 743 -711 414 -618 499 -1459 216 -2145 -330 -799 -1049 -1346 -1893 -1440 -126 -14 -390 -14 -520 0 -830 90 -1568 648 -1883 1425 -122 300 -172 558 -171 890 1 371 73 680 233 1010 116 237 253 428 445 621 408 407 894 626 1506 678 89 8 343 -5 470 -24z" style=""/>
    <path d="M4945 8050 c-174 -26 -342 -117 -445 -241 -86 -103 -159 -284 -160 -395 0 -28 -4 -31 -52 -43 -87 -22 -204 -88 -266 -151 -197 -198 -233 -490 -92 -731 52 -88 159 -188 252 -233 110 -54 181 -66 416 -66 l202 0 0 -292 0 -293 -69 -129 -69 -130 -55 3 c-74 3 -127 -24 -162 -82 -95 -163 88 -339 246 -238 81 51 104 152 54 237 l-25 43 75 151 75 150 0 290 0 290 225 0 225 0 0 -265 0 -265 -37 -15 c-48 -20 -71 -41 -94 -87 -41 -80 -11 -179 69 -225 91 -54 202 -22 250 72 41 82 4 191 -80 234 l-48 24 0 263 0 264 225 0 225 0 0 -295 0 -295 74 -148 74 -147 -24 -30 c-71 -89 -11 -250 101 -271 83 -15 148 10 192 76 46 67 39 149 -18 215 -36 41 -83 58 -148 53 l-49 -3 -71 136 -71 136 0 287 0 286 248 0 c277 0 341 9 443 60 121 62 228 197 258 330 59 256 -106 530 -358 595 -45 11 -46 11 -71 86 -35 105 -83 180 -162 254 -119 113 -283 173 -438 161 -42 -3 -90 -10 -108 -15 -32 -10 -33 -9 -65 47 -45 81 -177 211 -262 258 -124 68 -303 104 -430 84z m235 -76 c164 -38 338 -172 411 -317 19 -37 41 -69 50 -72 8 -3 37 2 65 10 28 9 87 15 139 15 155 1 260 -43 371 -154 77 -77 116 -147 144 -256 l16 -65 69 -18 c142 -37 235 -109 296 -228 122 -241 -6 -535 -268 -614 -41 -13 -204 -15 -1078 -15 -973 0 -1034 1 -1097 19 -219 60 -388 283 -388 511 0 147 55 277 159 381 70 70 177 130 256 144 62 11 75 21 75 61 0 70 32 191 73 273 125 252 427 391 707 325z m216 -2390 c62 -30 81 -101 44 -162 -37 -60 -118 -67 -172 -16 -23 23 -28 36 -28 74 0 53 20 87 64 106 41 17 51 17 92 -2z m-745 -311 c31 -18 59 -67 59 -103 0 -31 -29 -76 -58 -92 -41 -22 -99 -14 -133 17 -95 92 19 245 132 178z m1492 3 c94 -39 89 -174 -8 -206 -100 -33 -189 86 -128 169 37 49 80 61 136 37z" style=""/>
    <path d="M4992 7597 c-6 -7 -14 -31 -18 -54 -5 -35 -12 -43 -45 -58 -39 -18 -39 -18 -77 9 -21 14 -45 26 -53 26 -9 0 -53 -38 -98 -85 l-83 -85 17 -27 c10 -16 24 -36 30 -46 10 -15 10 -26 -3 -58 -13 -33 -20 -40 -51 -45 -76 -12 -71 -3 -71 -139 l0 -123 31 -11 c18 -6 42 -11 53 -11 16 0 26 -11 38 -43 15 -43 15 -45 -6 -73 -44 -57 -43 -60 47 -151 91 -91 91 -90 155 -47 32 21 35 21 73 5 21 -9 39 -23 39 -31 0 -8 5 -32 11 -52 l10 -38 124 0 c136 0 127 -5 140 71 6 31 13 39 45 52 36 14 40 14 72 -7 63 -43 63 -43 149 46 43 46 79 90 79 98 0 9 -11 32 -25 52 -24 35 -24 37 -8 77 12 31 22 41 38 41 12 0 36 5 54 11 l31 11 0 118 c0 72 -4 121 -10 125 -6 4 -32 12 -57 18 -39 10 -48 17 -60 49 -14 35 -13 38 11 75 14 21 26 45 26 54 0 18 -152 169 -171 169 -7 0 -30 -12 -51 -26 -38 -27 -38 -27 -77 -9 -34 15 -41 23 -46 59 -4 22 -12 47 -17 54 -15 17 -231 17 -246 -1z m203 -84 c9 -56 14 -62 80 -89 74 -30 74 -30 115 1 l34 25 55 -54 54 -54 -27 -34 c-14 -19 -26 -40 -26 -45 0 -17 52 -127 64 -135 6 -4 28 -10 49 -13 l38 -7 -3 -76 -3 -77 -42 -6 c-24 -3 -44 -7 -47 -10 -2 -2 -16 -35 -31 -72 l-27 -69 26 -36 26 -37 -54 -54 -54 -53 -37 25 c-37 25 -39 25 -74 11 -20 -9 -49 -21 -66 -27 -36 -13 -41 -19 -49 -68 l-6 -39 -75 0 c-73 0 -75 0 -81 28 -12 55 -21 66 -85 93 -67 29 -72 28 -131 -13 -14 -10 -22 -8 -49 17 -17 17 -39 42 -49 56 -19 25 -19 26 6 63 l25 37 -27 67 c-14 37 -28 69 -30 71 -3 3 -23 7 -47 10 l-42 6 -3 76 -3 76 47 9 c47 9 48 10 76 78 l29 68 -26 40 -27 40 53 54 52 53 36 -25 c44 -29 42 -29 115 0 64 26 70 33 80 89 l7 37 74 0 74 0 6 -37z" style=""/>
    <path d="M4982 7289 c-75 -37 -118 -88 -144 -172 -72 -229 152 -441 376 -357 241 91 254 428 21 536 -77 36 -173 34 -253 -7z m209 -44 c139 -49 193 -222 107 -342 -127 -178 -408 -91 -410 127 0 46 26 118 54 150 65 73 157 97 249 65z" style=""/>
    <path d="M5229 4974 c-6 -8 -2 -30 11 -63 11 -29 20 -55 20 -59 0 -5 -18 -16 -40 -26 -22 -9 -48 -28 -59 -41 -30 -39 -142 -362 -135 -391 11 -41 51 -54 172 -54 80 0 117 -4 141 -16 24 -12 46 -15 84 -10 65 9 72 9 128 0 28 -4 61 -2 83 6 l36 12 0 168 c0 194 2 190 -92 190 l-53 0 -25 53 c-23 47 -62 81 -114 100 -5 2 -1 26 8 55 28 83 25 87 -72 87 -51 0 -87 -5 -93 -11z m168 -13 c5 -3 -41 -107 -50 -113 -32 -20 -58 -8 -76 35 -39 88 -41 84 46 81 43 -1 79 -3 80 -3z m19 -152 c31 -15 48 -32 63 -63 23 -47 26 -72 11 -81 -5 -3 -10 -30 -10 -58 l0 -52 -57 3 c-32 2 -70 -1 -85 -7 -28 -10 -28 -12 -28 -101 l0 -90 -118 0 c-108 0 -121 2 -138 21 -19 21 -18 23 30 162 76 221 86 240 137 265 58 29 138 29 195 1z m223 -138 c26 -17 -1 -31 -59 -31 -58 0 -85 14 -59 31 8 5 34 9 59 9 25 0 51 -4 59 -9z m21 -48 c0 -1 -7 -9 -16 -17 -26 -27 -144 -17 -144 12 0 4 36 7 80 7 44 0 80 -1 80 -2z m-1 -43 c2 0 -2 -7 -9 -15 -8 -10 -31 -15 -65 -15 -60 0 -85 7 -85 24 0 9 90 13 159 6z m-193 -44 c10 -8 16 -18 12 -22 -14 -13 -105 -16 -128 -4 -23 12 -23 13 -5 26 25 18 96 18 121 0z m187 -12 c-13 -33 -153 -29 -153 4 0 4 35 7 79 7 56 0 77 -3 74 -11z m-175 -44 c-6 -28 -148 -25 -148 3 0 8 22 12 75 12 62 0 75 -3 73 -15z m181 10 c2 0 -2 -7 -9 -15 -8 -10 -31 -15 -65 -15 -60 0 -85 7 -85 24 0 9 90 13 159 6z m-179 -52 c0 -14 -38 -28 -75 -28 -37 0 -75 14 -75 28 0 4 34 8 75 8 41 0 75 -4 75 -8z m173 -5 c-7 -18 -69 -27 -111 -17 -63 16 -46 29 37 30 61 0 78 -3 74 -13z m-173 -39 c0 -16 -24 -24 -75 -24 -51 0 -75 8 -75 24 0 7 25 11 75 11 50 0 75 -4 75 -11z m179 6 c2 0 -2 -7 -9 -15 -8 -10 -31 -15 -65 -15 -60 0 -85 7 -85 24 0 9 90 13 159 6z m-182 -54 c-6 -17 -63 -27 -103 -18 -65 13 -49 28 31 28 45 0 74 -4 72 -10z m170 0 c-6 -17 -63 -27 -103 -18 -65 13 -49 28 31 28 45 0 74 -4 72 -10z" style=""/>
  </g>
</svg>